<svg xmlns="http://www.w3.org/2000/svg" xmlns:xlink="http://www.w3.org/1999/xlink" height="30.409260218957115" width="29.261799661262543">
  <g transform="translate(3.704630109478458, 3.7046301094785576)" opacity="1">
    <g opacity="1">
      <g opacity="1">
        <g opacity="1">
          <path fill-opacity="0" stroke="rgb(188,187,190)" stroke-opacity="1" stroke-width="2" opacity="1" fill-rule="evenodd" d="M10.450000000000001 22C4.888 22 1 22 1 22L1 1L19 1C19 1 19 2.2746363636363625 19 8.763636363636362"/>
        </g>
        <g opacity="1">
          <path fill-opacity="0" stroke="rgb(188,187,190)" stroke-opacity="1" stroke-width="2" opacity="1" fill-rule="evenodd" d="M3.999999999999999 7L16.00002 7"/>
        </g>
        <g opacity="1">
          <path fill-opacity="0" stroke="rgb(188,187,190)" stroke-opacity="1" stroke-width="2" opacity="1" fill-rule="evenodd" d="M3.999999999999999 13.00002L16.00002 13.00002"/>
        </g>
      </g>
      <g transform="translate(18.778584957122803, 18.549726963043213) rotate(351.00012550502265) translate(-18.778584957122803, -18.549726963043213)" opacity="1">
        <path fill="rgb(188,187,190)" fill-opacity="1" opacity="1" fill-rule="evenodd" d="M23.8762264251709 13.694409370422363C22.723346710205078 12.585612297058105 20.847515106201172 12.585564613342285 19.69537353515625 13.69365119934082L14.284173011779785 18.886430740356445C14.169249534606934 18.996723175048828 14.08448600769043 19.13256072998047 14.037275314331055 19.28195571899414L12.858819007873535 23.013259887695312C12.754343032836914 23.344087600708008 12.845364570617676 23.70330810546875 13.096402168273926 23.950763702392578C13.284459114074707 24.136133193969727 13.539931297302246 24.23675537109375 13.801958084106445 24.23675537109375C13.889629364013672 24.23675537109375 13.978137969970703 24.225475311279297 14.065020561218262 24.202299118041992L18.043228149414062 23.1424617767334C18.206939697265625 23.098857879638672 18.356163024902344 23.015296936035156 18.476409912109375 22.899837493896484L23.87627601623535 17.71620750427246C25.029155731201172 16.60740852355957 25.029155731201172 14.803302764892578 23.8762264251709 13.694409370422363ZM22.292139053344727 16.558353424072266L22.483102798461914 16.375070571899414C22.86670684814453 16.006038665771484 22.86670684814453 15.404670715332031 22.482412338256836 15.03507137298584C22.098119735717773 14.665472030639648 21.472843170166016 14.665472030639648 21.08854866027832 15.03507137298584L20.898225784301758 15.217738151550293L22.292139053344727 16.558353424072266ZM17.267250061035156 21.381959915161133L15.265851020812988 21.915172576904297L15.851555824279785 20.060588836669922L19.502735137939453 16.55678939819336L20.896894454956055 17.897640228271484L17.267250061035156 21.381959915161133Z"/>
      </g>
    </g>
  </g>
</svg>