<svg xmlns="http://www.w3.org/2000/svg" xmlns:xlink="http://www.w3.org/1999/xlink" height="24.000000000000227" width="24">
  <g opacity="1">
    <g opacity="1">
      <g opacity="1">
        <path fill="rgb(188,187,190)" fill-opacity="1" opacity="1" fill-rule="evenodd" d="M19.941375732421875 16.503280639648438C20.31553077697754 15.84693717956543 20.604000091552734 15.153609275817871 20.803312301635742 14.431875228881836L24 13.581562042236328L24 10.418437957763672L20.803359985351562 9.568124771118164C20.720531463623047 9.268172264099121 20.62139129638672 8.973515510559082 20.508047103881836 8.684062957763672L19.05581283569336 10.300969123840332C19.07334327697754 10.373952865600586 19.090171813964844 10.447125434875488 19.105405807495117 10.52076530456543L19.222782135009766 11.087905883789062L22.125 11.859890937805176L22.125 12.14006233215332L19.222827911376953 12.912046432495117L19.105405807495117 13.479140281677246C18.921937942504883 14.365452766418457 18.57271957397461 15.204984664916992 18.067594528198242 15.974390983581543L17.750953674316406 16.456687927246094L19.23426628112793 19.03293800354004L19.032983779907227 19.23421859741211L16.45673370361328 17.750905990600586L15.974437713623047 18.067546844482422C15.204984664916992 18.572765350341797 14.365452766418457 18.921937942504883 13.479187965393066 19.10536003112793L12.912046432495117 19.222734451293945L12.140109062194824 22.125L11.85993766784668 22.125L11.087953567504883 19.222782135009766L10.520812034606934 19.105405807495117C9.634547233581543 18.92198371887207 8.795015335083008 18.572765350341797 8.025562286376953 18.067594528198242L7.5432658195495605 17.750953674316406L4.967015743255615 19.23426628112793L4.765781402587891 19.032983779907227L6.249093532562256 16.45673370361328L5.932453155517578 15.974437713623047C5.427281379699707 15.205031394958496 5.078109264373779 14.365500450134277 4.8946404457092285 13.47923469543457L4.777265548706055 12.912094116210938L1.875 12.140109062194824L1.875 11.85993766784668L4.777312278747559 11.087953567504883L4.894687652587891 10.520812034606934C5.078109264373779 9.634593963623047 5.427281379699707 8.795109748840332 5.932499885559082 8.025609016418457L6.249140739440918 7.5433125495910645L4.765781402587891 4.967015743255615L4.967015743255615 4.7657341957092285L7.5433125495910645 6.249093532562256L8.025609016418457 5.932453155517578C8.795062065124512 5.427234172821045 9.634593963623047 5.078109264373779 10.520859718322754 4.8946404457092285L11.087953567504883 4.777265548706055L11.859890937805176 1.875L12.14006233215332 1.875L12.912046432495117 4.777265548706055L13.479140281677246 4.8946404457092285C14.229984283447266 5.05007791519165 14.947077751159668 5.324859142303467 15.616593360900879 5.7122344970703125L16.891359329223633 4.292906284332275C16.122140884399414 3.8032500743865967 15.297562599182129 3.4357500076293945 14.431875228881836 3.1966874599456787L13.581562042236328 0L10.418484687805176 0L9.568171501159668 3.1966874599456787C8.846390724182129 3.3959999084472656 8.153156280517578 3.6845157146453857 7.496718883514404 4.058671951293945L4.657265663146973 2.4238123893737793L2.4238593578338623 4.657265663146973L4.058671951293945 7.496718883514404C3.6844687461853027 8.153109550476074 3.3959531784057617 8.846437454223633 3.1966874599456787 9.568171501159668L0 10.418437957763672L0 13.581562042236328L3.196640729904175 14.431875228881836C3.3959531784057617 15.153656005859375 3.6844687461853027 15.84693717956543 4.058625221252441 16.503328323364258L2.4238123893737793 19.342687606811523L4.657218933105469 21.576141357421875L7.496624946594238 19.941328048706055C8.15306282043457 20.31553077697754 8.846343994140625 20.604000091552734 9.568124771118164 20.803312301635742L10.418437957763672 24L13.581515312194824 24L14.431828498840332 20.803266525268555C15.153609275817871 20.603952407836914 15.846890449523926 20.31543731689453 16.503328323364258 19.941280364990234L19.342735290527344 21.576093673706055L21.576141357421875 19.342639923095703L19.941375732421875 16.503280639648438ZM6.807281017303467 10.953421592712402L8.098921775817871 9.594234466552734L11.63348388671875 12.953062057495117L20.74692153930664 2.8060781955718994L22.141874313354492 4.059000015258789L11.73979663848877 15.640686988830566L6.807281017303467 10.953421592712402Z"/>
      </g>
    </g>
  </g>
</svg>