<svg xmlns="http://www.w3.org/2000/svg" xmlns:xlink="http://www.w3.org/1999/xlink" height="23" width="22.999961853027344">
  <g opacity="1">
    <g opacity="1">
      <g opacity="1">
        <path fill="rgb(188,187,190)" fill-opacity="1" opacity="1" fill-rule="evenodd" d="M22.999962210655212 9.43359375C22.999962210655212 11.07183837890625 22.573204398155212 12.685867309570312 21.765838980674744 14.101432800292969C21.519997000694275 14.532402038574219 20.971458792686462 14.68243408203125 20.540314078330994 14.436592102050781C20.109344840049744 14.190750122070312 19.959137320518494 13.642036437988281 20.20515477657318 13.211067199707031C20.85792577266693 12.066436767578125 21.203087210655212 10.76019287109375 21.203087210655212 9.43359375C21.203087210655212 5.222694396972656 17.777267813682556 1.796875 13.566368460655212 1.796875C9.355469107627869 1.796875 5.929649233818054 5.222694396972656 5.929649233818054 9.43359375C5.929649233818054 13.644493103027344 9.355469107627869 17.0703125 13.566368460655212 17.0703125C14.876823782920837 17.0703125 16.16920506954193 16.733047485351562 17.30365788936615 16.095016479492188C17.73620641231537 15.851806640625 18.284042716026306 16.005348205566406 18.527252554893494 16.437721252441406C18.77046239376068 16.870269775390625 18.617096304893494 17.418106079101562 18.184547781944275 17.66114044189453C16.781792044639587 18.45025634765625 15.184784293174744 18.8671875 13.566368460655212 18.8671875C11.298866629600525 18.8671875 9.215790152549744 18.06280517578125 7.587020754814148 16.724624633789062L1.5315170288085938 22.73906707763672C1.3563919067382812 22.9129638671875 1.1273956298828125 23 0.8983993530273438 23C0.6674728393554688 23 0.43654632568359375 22.91156005859375 0.260894775390625 22.73468017578125C-0.0886535495519638 22.382675170898438 -0.08672334998846054 21.81378173828125 0.26528167724609375 21.46405792236328L6.3127135038375854 15.457862854003906C4.952247500419617 13.822601318359375 4.132774233818054 11.722152709960938 4.132774233818054 9.43359375C4.132774233818054 4.231956481933594 8.364731192588806 0 13.566368460655212 0C18.76800572872162 0 22.999962210655212 4.231956481933594 22.999962210655212 9.43359375ZM19.602218985557556 9.0517578125C19.819984793663025 9.361648559570312 19.819984793663025 9.774894714355469 19.602394461631775 10.084785461425781C19.5708087682724 10.129707336425781 19.462364554405212 10.283248901367188 19.394981741905212 10.368003845214844C19.094215750694275 10.74615478515625 18.389854788780212 11.632308959960938 17.409820914268494 12.414405822753906C16.153236746788025 13.417251586914062 14.860153555870056 13.92578125 13.566368460655212 13.92578125C12.272758841514587 13.92578125 10.979675650596619 13.417251586914062 9.72309148311615 12.414405822753906C8.742882132530212 11.632308959960938 8.03852117061615 10.746330261230469 7.737754702568054 10.368003845214844C7.670371890068054 10.283248901367188 7.5621031522750854 10.1298828125 7.530341982841492 10.084785461425781C7.312751650810242 9.774894714355469 7.312751650810242 9.361648559570312 7.5305174589157104 9.0517578125C7.5621031522750854 9.0068359375 7.670371890068054 8.853469848632812 7.737754702568054 8.768890380859375C8.03852117061615 8.390388488769531 8.743057608604431 7.5044097900390625 9.72309148311615 6.722312927246094C10.9795001745224 5.7194671630859375 12.272758841514587 5.2109375 13.566368460655212 5.2109375C14.860153555870056 5.2109375 16.153236746788025 5.7194671630859375 17.409820914268494 6.722312927246094C18.389854788780212 7.5044097900390625 19.094215750694275 8.390388488769531 19.394981741905212 8.768890380859375C19.462364554405212 8.853645324707031 19.57063329219818 9.0068359375 19.602218985557556 9.0517578125ZM13.566368460655212 7.0078125C14.900864005088806 7.0078125 16.299583792686462 7.868873596191406 17.728134512901306 9.568359375C16.299408316612244 11.268020629882812 14.900864005088806 12.12890625 13.566368460655212 12.12890625C12.232048392295837 12.12890625 10.833328604698181 11.267845153808594 9.404777884483337 9.568359375C10.833328604698181 7.868873596191406 12.232048392295837 7.0078125 13.566368460655212 7.0078125ZM13.611290335655212 7.861328125C12.668457388877869 7.861328125 11.904259085655212 8.625526428222656 11.904259085655212 9.568359375C11.904259085655212 10.511192321777344 12.668457388877869 11.275390625 13.611290335655212 11.275390625C14.554123282432556 11.275390625 15.318321585655212 10.511192321777344 15.318321585655212 9.568359375C15.318321585655212 8.625526428222656 14.554123282432556 7.861328125 13.611290335655212 7.861328125Z"/>
      </g>
    </g>
  </g>
</svg>