<svg xmlns="http://www.w3.org/2000/svg" xmlns:xlink="http://www.w3.org/1999/xlink" height="76.99999618530273" width="22.000001907348633">
  <g transform="translate(0, 0)" opacity="1">
    <g opacity="1">
      <g opacity="1">
        <path fill="rgb(188,187,190)" fill-opacity="1" opacity="1" fill-rule="evenodd" d="M9.526969909667969 21.999629974365234L12.473031997680664 21.999629974365234C12.75433349609375 21.999629974365234 13.006773948669434 21.829103469848633 13.111518859863281 21.567285537719727L13.686217308044434 20.13054084777832C14.338156700134277 19.939895629882812 14.965227127075195 19.67939567565918 15.558048248291016 19.35578727722168L16.980043411254883 19.965404510498047C17.23851203918457 20.07282066345215 17.53797721862793 20.01773452758789 17.7366886138916 19.819026947021484L19.820003509521484 17.736421585083008C20.018754959106445 17.53771209716797 20.07647705078125 17.238252639770508 19.9657039642334 16.979108810424805L19.35675621032715 15.557134628295898C19.68100929260254 14.962286949157715 19.94083595275879 14.335226058959961 20.13152313232422 13.686689376831055L21.568288803100586 13.110642433166504C21.828792572021484 13.005899429321289 22.000001907348633 12.753462791442871 22.000001907348633 12.472844123840332L22.000001907348633 9.526825904846191C22.000001907348633 9.246207237243652 21.828792572021484 8.993770599365234 21.568288803100586 8.88902759552002L20.13152313232422 8.312980651855469C19.940876007080078 7.6644439697265625 19.681049346923828 7.03738260269165 19.35675621032715 6.442534923553467L19.9657039642334 5.020560264587402C20.07647705078125 4.761417388916016 20.018714904785156 4.4619574546813965 19.820003509521484 4.263248920440674L17.7366886138916 2.180643081665039C17.53797721862793 1.9818947315216064 17.23851203918457 1.9268487691879272 16.980043411254883 2.034266233444214L15.558048248291016 2.643883466720581C14.965187072753906 2.3202738761901855 14.338116645812988 2.0598132610321045 13.686217308044434 1.8691283464431763L13.111518859863281 0.4323843717575073C13.006773948669434 0.17052677273750305 12.75433349609375 0 12.473031997680664 0L9.526969909667969 0C9.245668411254883 0 8.993227005004883 0.17052677273750305 8.888483047485352 0.4323444366455078L8.3137845993042 1.8690884113311768C7.6618452072143555 2.0597333908081055 7.0347747802734375 2.3202338218688965 6.441954135894775 2.643843650817871L5.019958019256592 2.034226417541504C4.762167930603027 1.9268088340759277 4.462025165557861 1.9818947315216064 4.2633137702941895 2.18060302734375L2.179997682571411 4.263209342956543C1.9812464714050293 4.461917400360107 1.923525094985962 4.761377334594727 2.034297466278076 5.0205206871032715L2.643245220184326 6.442494869232178C2.3189918994903564 7.0373430252075195 2.059166193008423 7.664403915405273 1.8684782981872559 8.31294059753418L0.4317127466201782 8.88898754119873C0.17120841145515442 8.993730545043945 0 9.246167182922363 0 9.526785850524902L0 12.472804069519043C0 12.753462791442871 0.17120841145515442 13.005899429321289 0.4317127466201782 13.110602378845215L1.8684782981872559 13.686649322509766C2.059126377105713 14.335186004638672 2.3189520835876465 14.962246894836426 2.643245220184326 15.55709457397461L2.034297466278076 16.979068756103516C1.923525094985962 17.23821258544922 1.9812864065170288 17.53767204284668 2.179997682571411 17.73638153076172L4.2633137702941895 19.818986892700195C4.462025165557861 20.01773452758789 4.7621283531188965 20.07278060913086 5.019958019256592 19.965364456176758L6.441954135894775 19.35574722290039C7.034814834594727 19.67935562133789 7.6618852615356445 19.939817428588867 8.3137845993042 20.13050079345703L8.888483047485352 21.567245483398438C8.993227005004883 21.829103469848633 9.245668411254883 21.999629974365234 9.526969909667969 21.999629974365234ZM11.986662864685059 19.999629974365234L10.112415313720703 19.999629974365234L9.621051788330078 18.770963668823242C9.544879913330078 18.5811710357666 9.383146286010742 18.438852310180664 9.184626579284668 18.38888931274414C8.475997924804688 18.207857131958008 7.801110744476318 17.928157806396484 7.179268836975098 17.557294845581055C7.003206729888916 17.452394485473633 6.786571502685547 17.43992042541504 6.599893093109131 17.518577575683594L5.383047580718994 18.04051971435547L4.05758810043335 16.715713500976562L4.578907489776611 15.499520301818848C4.659459114074707 15.310988426208496 4.645092964172363 15.096213340759277 4.5408220291137695 14.920154571533203C4.168726921081543 14.294573783874512 3.889024019241333 13.620329856872559 3.710474729537964 12.914830207824707C3.659916639328003 12.716276168823242 3.518190860748291 12.55521297454834 3.3283939361572266 12.479043960571289L2.099076271057129 11.98709487915039L2.099076271057129 10.111616134643555L3.3283939361572266 9.619629859924316C3.518190860748291 9.54345989227295 3.659916639328003 9.382359504699707 3.710474729537964 9.183842658996582C3.889024019241333 8.47834300994873 4.168726921081543 7.804099082946777 4.5408220291137695 7.178518295288086C4.645092964172363 7.002459526062012 4.659459114074707 6.787684440612793 4.578907489776611 6.599152565002441L4.05758810043335 5.382958889007568L5.383047580718994 4.058152198791504L6.599893093109131 4.580094337463379C6.786571502685547 4.658751487731934 7.003206729888916 4.6462788581848145 7.179268836975098 4.541378021240234C7.801110744476318 4.170551300048828 8.475997924804688 3.8908534049987793 9.184626579284668 3.7097830772399902C9.383184432983398 3.6598567962646484 9.544879913330078 3.5175023078918457 9.621051788330078 3.3277087211608887L10.112415313720703 2.0990426540374756L11.986662864685059 2.0990426540374756L12.478026390075684 3.3277087211608887C12.554197311401367 3.5175023078918457 12.71589469909668 3.6598196029663086 12.914451599121094 3.7097830772399902C13.62308120727539 3.8908162117004395 14.297967910766602 4.170514106750488 14.919809341430664 4.541378021240234C15.096502304077148 4.6462788581848145 15.311244010925293 4.658751487731934 15.499185562133789 4.580094337463379L16.71603012084961 4.058152198791504L18.04149055480957 5.382958889007568L17.520172119140625 6.599152565002441C17.439619064331055 6.787684440612793 17.4539852142334 7.002459526062012 17.558256149291992 7.178518295288086C17.93035125732422 7.804099082946777 18.210052490234375 8.47834300994873 18.38860321044922 9.183842658996582C18.439163208007812 9.382396697998047 18.580886840820312 9.54345989227295 18.77068328857422 9.619629859924316L20.000003814697266 10.111616134643555L20.000003814697266 11.98709487915039L18.77068328857422 12.479043960571289C18.580886840820312 12.55521297454834 18.439163208007812 12.716313362121582 18.38860321044922 12.914830207824707C18.210052490234375 13.620329856872559 17.93035125732422 14.294573783874512 17.558256149291992 14.920154571533203C17.4539852142334 15.096213340759277 17.439619064331055 15.310988426208496 17.520172119140625 15.499520301818848L18.04149055480957 16.715713500976562L16.71603012084961 18.04051971435547L15.499185562133789 17.518577575683594C15.311281204223633 17.43992042541504 15.096502304077148 17.452394485473633 14.919809341430664 17.557294845581055C14.297967910766602 17.92812156677246 13.62308120727539 18.20781898498535 12.914451599121094 18.38888931274414C12.71589469909668 18.43881607055664 12.554197311401367 18.5811710357666 12.478026390075684 18.770963668823242L11.986662864685059 19.999629974365234Z"/>
      </g>
      <g opacity="1">
        <path fill="rgb(188,187,190)" fill-opacity="1" opacity="1" fill-rule="evenodd" d="M5.49997091293335 10.999814987182617C5.49997091293335 14.033092975616455 7.967337608337402 16.49974298477173 10.999980926513672 16.49974298477173C14.032664775848389 16.49974298477173 16.49999189376831 14.033092975616455 16.49999189376831 10.999814987182617C16.49999189376831 7.966538429260254 14.032664775848389 5.499887943267822 10.999980926513672 5.499887943267822C7.967297554016113 5.499887943267822 5.49997091293335 7.966538429260254 5.49997091293335 10.999814987182617ZM7.156400203704834 10.999814987182617C7.156400203704834 8.880386352539062 8.88051986694336 7.156291961669922 10.999981880187988 7.156291961669922C13.11948013305664 7.156291961669922 14.843562602996826 8.880386352539062 14.843562602996826 10.999814987182617C14.843562602996826 13.119245529174805 13.11948013305664 14.84333848953247 10.999981880187988 14.84333848953247C8.88048267364502 14.84333848953247 7.156400203704834 13.119245529174805 7.156400203704834 10.999814987182617Z"/>
      </g>
    </g>
  </g>
</svg>