<svg xmlns="http://www.w3.org/2000/svg" xmlns:xlink="http://www.w3.org/1999/xlink" height="48" width="147.28205128205127">
  <defs>
    <rect id="rect-1" opacity="1" x="0" y="0" width="147.28205128205127" height="47.999999999999986"/>
    <mask id="mask-2" maskUnits="userSpaceOnUse" maskContentUnits="userSpaceOnUse">
      <rect opacity="1" x="0" y="0" width="147.28205128205127" height="48" fill="Black"/>
      <use xlink:href="#rect-1" fill="White"/>
    </mask>
  </defs>
  <g opacity="1">
    <g opacity="1">
      <g/>
      <g mask="url(#mask-2)">
        <g opacity="1">
          <g opacity="1">
            <g opacity="1">
              <g opacity="1">
                <g opacity="1">
                  <path fill="rgb(84,185,72)" fill-opacity="1" opacity="1" fill-rule="evenodd" d="M0 0L53.802129921657325 0L53.802129921657325 47.999999999999986L0 47.999999999999986L0 0L0 0Z"/>
                </g>
                <g opacity="1">
                  <path fill="rgb(255,255,255)" fill-opacity="1" opacity="1" fill-rule="evenodd" d="M35.31084620730151 37.624379872431184C42.50948248724428 37.624379872431184 47.83169698805504 36.059532246633886 47.83169698805504 23.234585400425537C47.83169698805504 13.505315379164033 44.24943722789395 9.661233167966307 36.74375011136594 9.661233167966307L5.6633820970158695 9.661233167966307L5.6633820970158695 13.641389085755103L14.806673675331808 13.641389085755103L14.806673675331808 37.624379872431184L21.05004068589829 37.624379872431184L21.05004068589829 13.641389085755105L34.86732833223394 13.641389085755105C39.09780652518609 13.641389085755105 41.11069534280042 15.818568391212224 41.11069534280042 23.302622253721076C41.11069534280042 30.752657689582158 39.37074060215075 33.64422395464239 35.17437916881917 33.64422395464239L29.101595956355602 33.64422395464239L29.101595956355602 15.070163004961339L22.78999542654796 15.070163004961339L22.78999542654796 37.59036144578342L35.31084620730151 37.59036144578342L35.31084620730151 37.624379872431184L35.31084620730151 37.624379872431184Z"/>
                </g>
              </g>
            </g>
          </g>
          <g opacity="1">
            <g opacity="1">
              <path fill="rgb(0,65,40)" fill-opacity="1" opacity="1" fill-rule="evenodd" d="M67.68765258789062 9.627214431762695L80.07203674316406 9.627214431762695C83.48371124267578 9.627214431762695 86.82715606689453 10.715804100036621 86.82715606689453 14.457830429077148C86.82715606689453 17.145286560058594 85.39424896240234 18.608078002929688 82.76725769042969 19.25442886352539L82.76725769042969 19.322465896606445C85.49659729003906 19.69666862487793 87.20243835449219 21.839828491210938 87.20243835449219 23.778881072998047C87.20243835449219 28.711551666259766 83.21077728271484 29.22182846069336 79.11676788330078 29.22182846069336L67.68765258789062 29.22182846069336L67.68765258789062 9.627214431762695ZM74.783935546875 17.145286560058594L76.66035461425781 17.145286560058594C77.99091339111328 17.145286560058594 79.42381286621094 16.7370662689209 79.42381286621094 15.274273872375488C79.42381286621094 13.811481475830078 78.19561004638672 13.369241714477539 76.83094024658203 13.369241714477539L74.783935546875 13.369241714477539L74.783935546875 17.145286560058594ZM76.76270294189453 25.20765495300293L74.74981689453125 25.20765495300293L74.74981689453125 21.159461975097656L76.79682159423828 21.159461975097656C78.22972869873047 21.159461975097656 79.62850952148438 21.465627670288086 79.62850952148438 23.166549682617188C79.62850952148438 24.697378158569336 78.16149139404297 25.20765495300293 76.76270294189453 25.20765495300293Z"/>
            </g>
            <g opacity="1">
              <path fill="rgb(0,65,40)" fill-opacity="1" opacity="1" fill-rule="evenodd" d="M96.68689727783203 14.253721237182617C93.9234390258789 14.253721237182617 92.66111755371094 14.52586841583252 90.54588317871094 15.104182243347168L90.51176452636719 15.104182243347168L90.51176452636719 19.22041130065918C91.91055297851562 18.540042877197266 93.71873474121094 17.99574851989746 95.42457580566406 17.99574851989746C97.19864654541016 17.99574851989746 99.14330291748047 18.233877182006836 99.17742156982422 20.104890823364258C98.52920532226562 20.036853790283203 97.40335083007812 19.900779724121094 96.4139633178711 19.900779724121094C92.89993286132812 19.900779724121094 88.84004211425781 20.819278717041016 88.84004211425781 25.309709548950195C88.84004211425781 28.371368408203125 91.50115203857422 29.596031188964844 94.2304916381836 29.596031188964844C96.24337768554688 29.596031188964844 98.05156707763672 28.813608169555664 99.04095458984375 27.146705627441406L99.10918426513672 27.146705627441406L99.10918426513672 29.255847930908203L105.6937255859375 29.255847930908203L105.6937255859375 20.343019485473633C105.6937255859375 14.968108177185059 100.74678802490234 14.253721237182617 96.68689727783203 14.253721237182617ZM98.46096801757812 22.826364517211914L99.14330291748047 22.826364517211914L99.14330291748047 23.268604278564453C99.14330291748047 24.527286529541016 98.42684936523438 25.888023376464844 96.95983123779297 25.888023376464844C95.86809539794922 25.888023376464844 95.2881088256836 25.51382064819336 95.2881088256836 24.493267059326172C95.2881088256836 22.962438583374023 96.99394989013672 22.826364517211914 98.46096801757812 22.826364517211914Z"/>
            </g>
            <g opacity="1">
              <path fill="rgb(0,65,40)" fill-opacity="1" opacity="1" fill-rule="evenodd" d="M108.18424475686538 14.62792345854026L114.90524640212004 14.62792345854026L114.90524640212004 17.14528703047506L114.9734799213612 17.14528703047506C115.82639891187574 15.104181431609005 117.77105421024892 14.287739192062585 119.78394302786327 14.287739192062585C123.57090334574788 14.287739192062585 124.93557373057116 16.260807937633103 124.93557373057116 19.08433734939781L124.93557373057116 29.255846917080312L117.8392877294901 29.255846917080312L117.8392877294901 20.81927710843396C117.8392877294901 19.968816442239767 117.8392877294901 18.81218993621567 116.61108438314913 18.81218993621567C115.34876427718761 18.81218993621567 115.34876427718761 19.968816442239767 115.34876427718761 20.81927710843396L115.34876427718761 29.255846917080312L108.25247827610654 29.255846917080312L108.25247827610654 14.62792345854026L108.18424475686538 14.62792345854026Z"/>
            </g>
            <g opacity="1">
              <path fill="rgb(0,65,40)" fill-opacity="1" opacity="1" fill-rule="evenodd" d="M134.93178429940136 20.445074415307957L135.00001781864253 20.445074415307957L139.0599122134918 14.627923458539705L147.11146748394916 14.627923458539705L142.13042057934416 21.091424521615536L147.28205128205207 29.255846917079747L138.99167869425062 29.255846917079747L135.00001781864253 22.145995747696333L134.9317842994014 22.145995747696333L134.9317842994014 29.255846917079747L127.83549829832032 29.255846917079747L127.83549829832032 8.164422395463873L134.9317842994014 8.164422395463873L134.93178429940136 20.445074415307957Z"/>
            </g>
          </g>
        </g>
      </g>
    </g>
  </g>
</svg>